<svg xmlns="http://www.w3.org/2000/svg" xmlns:xlink="http://www.w3.org/1999/xlink" version="1" preserveAspectRatio="xMidYMid meet" viewBox="0 0 640 640" width="640" height="640"><defs><path d="M498 135L498 135 498 135 499 135 499 135 499 136 500 136 500 136 500 136 500 136 501 136 501 136 501 136 502 137 502 137 502 137 502 137 502 137 503 138 503 138 503 138 503 138 503 139 504 139 504 139 504 139 504 140 504 140 504 140 504 140 505 141 505 141 505 141 505 142 505 142 505 142 505 143 505 143 505 143 505 456 505 456 505 456 505 457 505 457 505 457 505 458 505 458 505 458 504 459 504 459 504 459 504 459 504 460 504 460 504 460 503 460 503 461 503 461 503 461 503 461 502 462 502 462 502 462 502 462 502 462 501 463 501 463 501 463 500 463 500 463 500 463 500 463 499 463 499 463 499 464 498 464 498 464 498 464 497 464 497 464 464 464 464 497 464 497 464 497 464 498 464 498 464 498 464 499 464 499 464 499 464 500 464 500 463 500 463 500 463 501 463 501 463 501 463 501 462 502 462 502 462 502 462 502 462 503 461 503 461 503 461 503 461 503 460 504 460 504 460 504 460 504 459 504 459 504 459 504 458 504 458 505 458 505 458 505 457 505 457 505 457 505 456 505 143 505 143 505 142 505 142 505 142 505 141 505 141 505 141 504 140 504 140 504 140 504 140 504 139 504 139 504 139 504 139 503 138 503 138 503 138 503 138 503 137 502 137 502 137 502 137 502 137 501 136 501 136 501 136 501 136 500 136 500 136 500 136 500 135 499 135 499 135 499 135 498 135 498 135 498 135 497 135 497 135 497 135 184 135 184 135 184 135 183 135 183 135 183 135 182 135 182 135 182 136 181 136 181 136 181 136 181 136 180 136 180 136 180 137 180 137 179 137 179 137 179 137 179 138 178 138 178 138 178 138 178 139 178 139 178 139 177 139 177 140 177 140 177 140 177 140 177 141 177 141 177 141 176 142 176 142 176 142 176 143 176 143 176 176 176 176 143 176 143 176 143 176 142 176 142 176 142 176 141 176 141 176 141 176 140 176 140 177 140 177 140 177 139 177 139 177 139 177 139 178 138 178 138 178 138 178 138 178 137 179 137 179 137 179 137 179 137 180 136 180 136 180 136 180 136 181 136 181 136 181 136 182 136 182 135 182 135 183 135 183 135 183 135 183 135 184 135 497 135 497 135 498 135Z" id="b4sqiGH4OE"/><clipPath id="clipdf6eOe3kY"><use xlink:href="#b4sqiGH4OE"/></clipPath><path d="M455 177C460 177 464 181 464 186 464 249 464 432 464 495 464 500 460 504 455 504 391 504 208 504 144 504 139 504 135 500 135 495 135 432 135 249 135 186 135 181 139 177 144 177 208 177 391 177 455 177Z" id="a1E5EdOQhY"/><clipPath id="clipe1Kz699UGR"><use xlink:href="#a1E5EdOQhY" opacity="1"/></clipPath></defs><use xlink:href="#b4sqiGH4OE" fill="#F4F4F6" fill-opacity="0"/><g clip-path="url(#clipdf6eOe3kY)"><use xlink:href="#b4sqiGH4OE" fill-opacity="0" stroke="#F4F4F6" stroke-width="60"/></g><use xlink:href="#a1E5EdOQhY" fill="#F4F4F6" fill-opacity="0"/><g clip-path="url(#clipe1Kz699UGR)"><use xlink:href="#a1E5EdOQhY" fill-opacity="0" stroke="#F4F4F6" stroke-width="60"/></g></svg>