<svg xmlns="http://www.w3.org/2000/svg" width="24" height="24" viewBox="0 0 24 24">
  <path style="fill:#f4f4f4;" d="m 12,5.25 c 4.179,0 7.927,2.078 10.495,5.351 L 24,9.11 C 21.065,5.371 16.783,3 12,3 7.217,3 2.935,5.371 0,9.11 l 1.505,1.491 C 4.073,7.328 7.821,5.25 12,5.25 Z"/>
  <path style="fill:#f4f4f4;" d="m 12,16.5 c -1.196,0 -2.258,0.602 -2.99,1.536 L 12,21 14.99,18.037 C 14.258,17.102 13.196,16.5 12,16.5 Z"/>
  <path style="fill:#f4f4f4;" d="m 12,14.25 c 1.791,0 3.397,0.891 4.498,2.293 L 18,15.055 C 16.533,13.186 14.392,12 12,12 9.608,12 7.467,13.186 6,15.055 l 1.502,1.488 C 8.603,15.141 10.209,14.25 12,14.25 Z"/>
  <path style="fill:#f4f4f4;" d="M 4.504,13.572 2.999,12.083 C 5.2,9.278 8.412,7.5 12,7.5 c 3.588,0 6.8,1.779 9,4.583 l -1.504,1.489 C 17.661,11.234 14.984,9.75 12,9.75 c -2.984,0 -5.661,1.484 -7.496,3.822 z"/>
</svg>
